#!OML:ASF H:\Terrain\Patient Classification 1\Takeo\Monday\TakeoMonday.ASF
:FULLY-SPECIFIED
:DEGREES
1
root 9.55732 16.0206 -40.6931 -0.2216 -5.68439 -5.60634
lowerback 12.5762 0.611799 7.37279
upperback 3.17851 1.7744 0.829941
thorax -3.49788 0.834225 -3.55439
lowerneck -12.1913 1.13992 0.355122
upperneck -6.78876 1.36136 -4.96723
head -0.0540323 0.62724 -1.56531
rclavicle 7.3923e-015 -1.56046e-014
rhumerus -11.6039 22.2986 -83.518
rradius 57.6577
rwrist -21.5344
rhand -31.0564 21.5082
rfingers 7.12502
rthumb -4.33755 -8.42735
lclavicle 7.3923e-015 -1.56046e-014
lhumerus -53.5708 33.1692 56.0329
lradius 14.4574
lwrist 12.3632
lhand -25.5376 19.2515
lfingers 7.12502
lthumb 0.992345 49.2289
rfemur 14.4369 1.96534 30.002
rtibia 9.70802
rfoot -19.787 -5.57351
rtoes 1.84819
lfemur -40.7617 0.0529419 -13.9199
ltibia 39.1467
lfoot -10.5232 9.51985
ltoes -10.1256
2
root 9.57207 15.9968 -40.5049 0.151414 -6.08425 -6.02095
lowerback 12.5081 0.523128 7.66115
upperback 2.99701 1.70533 1.01953
thorax -3.6567 0.787398 -3.50757
lowerneck -11.9896 1.36404 0.00390103
upperneck -6.81345 1.69988 -4.80316
head -0.0921211 0.808019 -1.43972
rclavicle 2.6339e-015 -6.43565e-015
rhumerus -10.8785 23.0644 -83.1691
rradius 58.0401
rwrist -21.2406
rhand -30.9158 21.2593
rfingers 7.12502
rthumb -4.20181 -8.67896
lclavicle 2.6339e-015 -6.43565e-015
lhumerus -55.5848 34.3876 53.99
lradius 14.2347
lwrist 10.9497
lhand -25.0009 18.7124
lfingers 7.12502
lthumb 1.51066 48.6868
rfemur 15.43 2.40887 30.3571
rtibia 8.31771
rfoot -19.2068 -5.66544
rtoes 1.60956
lfemur -41.247 -0.42686 -12.8683
ltibia 37.1062
lfoot -10.705 10.3769
ltoes -10.006
3
root 9.59013 15.9735 -40.3091 0.377493 -6.48713 -6.44745
lowerback 13.2336 0.394566 8.44647
upperback 2.38984 1.7341 0.780129
thorax -4.66247 0.734533 -4.23472
lowerneck -11.5641 1.54273 0.140001
upperneck -6.66058 1.93182 -4.34882
head -0.11175 0.927392 -1.31085
rclavicle 4.4975e-015 1.68967e-015
rhumerus -11.1857 23.2668 -83.7817
rradius 58.4631
rwrist -20.8433
rhand -31.2355 21.9224
rfingers 7.12502
rthumb -4.51052 -8.00959
lclavicle 4.4975e-015 1.68967e-015
lhumerus -57.2165 33.8891 52.4496
lradius 14.1975
lwrist 10.3073
lhand -24.7865 18.6176
lfingers 7.12502
lthumb 1.71773 48.5904
rfemur 16.9599 2.81492 30.7511
rtibia 6.24497
rfoot -18.2094 -5.97861
rtoes -0.0293175
lfemur -41.624 -0.862031 -11.8717
ltibia 35.5463
lfoot -10.9714 11.3992
ltoes -11.9034
4
root 9.6144 15.9667 -40.0968 0.347139 -6.86022 -6.24185
lowerback 12.472 0.491029 8.34814
upperback 2.97907 1.73316 0.709546
thorax -3.61839 0.796881 -4.22345
lowerneck -12.1233 1.50695 0.0841759
upperneck -6.83573 1.88784 -4.40861
head -0.0778297 0.901817 -1.32024
rclavicle -2.20403e-014 3.67752e-015
rhumerus -9.60544 23.3949 -83.0099
rradius 58.7395
rwrist -20.6932
rhand -31.6539 22.363
rfingers 7.12502
rthumb -4.91452 -7.55998
lclavicle -2.20403e-014 3.67752e-015
lhumerus -57.6886 35.3759 51.0862
lradius 13.6405
lwrist 8.55103
lhand -24.7835 18.9231
lfingers 7.12502
lthumb 1.72066 48.8959
rfemur 19.2329 3.1651 30.4716
rtibia 3.22029
rfoot -16.6185 -6.55398
rtoes -2.46789
lfemur -41.5043 -1.39041 -11.6144
ltibia 34.117
lfoot -11.4402 12.222
ltoes -11.9953
5
root 9.63575 15.9639 -39.8781 0.170873 -7.42645 -6.05237
lowerback 13.035 0.540213 8.14746
upperback 2.76497 1.83612 0.654453
thorax -4.14621 0.820372 -4.20409
lowerneck -12.4393 1.53463 0.0339314
upperneck -6.17844 1.95751 -4.45117
head 0.183792 0.922741 -1.3197
rclavicle 3.41661e-014 -1.21259e-014
rhumerus -9.50603 23.6119 -83.0041
rradius 58.9966
rwrist -20.5296
rhand -31.8203 22.1144
rfingers 7.12502
rthumb -5.07525 -7.80486
lclavicle 3.41661e-014 -1.21259e-014
lhumerus -59.1481 35.49 49.7986
lradius 13.3845
lwrist 8.02196
lhand -24.5887 18.7568
lfingers 7.12502
lthumb 1.90877 48.728
rfemur 21.7839 3.6594 30.2676
rtibia -5.40694e-014
rfoot -14.7563 -7.0421
rtoes -4.67598
lfemur -41.1533 -1.74566 -11.2696
ltibia 33.1331
lfoot -12.244 12.6407
ltoes -9.69189
6
root 9.65473 15.9437 -39.6572 0.0118032 -7.9489 -6.1379
lowerback 12.9513 0.580637 8.00057
upperback 3.03072 1.85381 0.828317
thorax -3.82752 0.850743 -3.93332
lowerneck -12.6367 1.66911 -0.0573222
upperneck -6.39501 2.1359 -4.71995
head 0.1542 1.01089 -1.38252
rclavicle 1.98536e-014 2.04748e-014
rhumerus -8.69247 24.0033 -82.5621
rradius 59.134
rwrist -20.5517
rhand -31.7838 22.1092
rfingers 7.12502
rthumb -5.03996 -7.81084
lclavicle 1.98536e-014 2.04748e-014
lhumerus -60.1005 36.2392 49.0469
lradius 13.1975
lwrist 7.37778
lhand -24.2054 17.8915
lfingers 7.12502
lthumb 2.27904 47.8591
rfemur 22.7961 4.16062 30.2968
rtibia 2.8625e-014
rfoot -14.7165 -7.14805
rtoes -5.82392
lfemur -40.9573 -2.03131 -10.6802
ltibia 32.5937
lfoot -12.7226 13.2421
ltoes -9.31609
7
root 9.67539 15.9172 -39.4316 -0.144104 -8.40827 -6.32691
lowerback 13.1195 0.604319 8.21461
upperback 3.13542 1.9217 0.804099
thorax -3.79101 0.886487 -4.0925
lowerneck -12.5428 1.75152 0.0806535
upperneck -6.80506 2.20812 -4.77523
head 0.0131774 1.0512 -1.42279
rclavicle -5.81445e-015 1.72943e-014
rhumerus -8.25188 24.0593 -82.5256
rradius 59.2764
rwrist -20.5033
rhand -31.8049 22.4182
rfingers 7.12502
rthumb -5.06038 -7.50142
lclavicle -5.81445e-015 1.72943e-014
lhumerus -61.0674 36.7633 47.8046
lradius 12.978
lwrist 6.43633
lhand -23.7854 17.2381
lfingers 7.12502
lthumb 2.68465 47.2009
rfemur 23.8641 4.61533 30.3932
rtibia -3.18055e-014
rfoot -14.6094 -6.94564
rtoes -5.81134
lfemur -40.7569 -2.20705 -10.1608
ltibia 32.4437
lfoot -12.6753 13.9973
ltoes -11.1581
